<?xml version="1.0" standalone="no"?>
<!DOCTYPE svg PUBLIC "-//W3C//DTD SVG 20010904//EN"
 "http://www.w3.org/TR/2001/REC-SVG-20010904/DTD/svg10.dtd">
<svg version="1.0" xmlns="http://www.w3.org/2000/svg"
 width="994.000000pt" height="994.000000pt" viewBox="0 0 994.000000 994.000000"
 preserveAspectRatio="xMidYMid meet">
<metadata>
Created by potrace 1.11, written by Peter Selinger 2001-2013
</metadata>
<g transform="translate(0.000000,994.000000) scale(0.100000,-0.100000)"
fill="#000000" stroke="none">
<path d="M4747 9553 c-3 -2 -27 -6 -53 -9 -27 -3 -65 -11 -85 -19 -20 -8 -39
-11 -43 -8 -3 3 -11 2 -18 -4 -7 -5 -29 -10 -48 -12 -19 -2 -44 -8 -55 -14
-11 -6 -42 -12 -70 -13 -60 -2 -173 -37 -200 -61 -11 -10 -29 -19 -40 -20 -18
-1 -38 -5 -86 -15 -10 -2 -23 -9 -30 -14 -8 -6 -43 -21 -79 -35 -64 -23 -183
-91 -227 -129 -13 -11 -26 -20 -29 -20 -3 0 -26 -13 -51 -30 -24 -16 -46 -30
-48 -30 -16 0 -215 -147 -274 -203 -24 -23 -52 -46 -61 -52 -17 -10 -115 -123
-135 -156 -20 -32 -75 -104 -95 -124 -11 -12 -20 -24 -20 -29 0 -4 -11 -22
-25 -40 -14 -18 -25 -35 -25 -38 0 -6 -40 -65 -107 -160 -34 -47 -123 -216
-123 -231 0 -6 -13 -32 -30 -59 -16 -26 -30 -52 -30 -57 0 -5 -8 -26 -17 -47
-9 -22 -18 -48 -20 -59 -2 -11 -8 -24 -13 -29 -6 -6 -10 -20 -10 -33 0 -13 -4
-23 -8 -23 -5 0 -9 -6 -10 -12 -1 -7 -15 -53 -31 -103 -17 -49 -36 -117 -42
-150 -7 -33 -17 -71 -22 -85 -17 -43 -19 -62 -22 -196 -1 -73 -6 -138 -10
-145 -13 -21 -16 -572 -3 -580 7 -4 11 -48 10 -115 0 -80 5 -122 19 -162 11
-30 19 -65 19 -77 0 -12 12 -53 26 -91 14 -38 27 -78 30 -89 2 -11 6 -29 8
-40 7 -33 46 -135 77 -200 11 -22 21 -49 22 -60 1 -12 13 -35 25 -52 12 -17
23 -39 25 -49 3 -20 28 -66 110 -204 65 -108 173 -263 222 -316 5 -6 26 -31
45 -54 50 -61 175 -187 245 -247 33 -28 78 -68 99 -87 22 -20 46 -36 53 -36 7
0 13 -4 13 -8 0 -5 24 -24 53 -42 82 -53 347 -324 392 -401 6 -10 31 -45 57
-78 26 -33 54 -75 63 -93 19 -42 34 -65 66 -105 15 -17 32 -48 39 -69 7 -20
26 -63 41 -95 16 -32 29 -65 29 -73 0 -8 5 -18 10 -21 14 -9 86 -154 106 -213
9 -26 23 -55 32 -64 8 -10 12 -18 8 -18 -3 0 0 -13 9 -30 8 -16 15 -38 15 -50
0 -11 9 -37 20 -57 11 -21 20 -44 20 -51 0 -7 9 -30 19 -50 25 -48 36 -77 51
-132 7 -25 16 -58 21 -75 5 -16 9 -33 9 -38 0 -4 7 -22 16 -40 10 -17 19 -44
20 -60 8 -65 29 -142 44 -162 5 -5 13 -30 19 -55 11 -44 32 -101 54 -147 6
-13 10 -44 10 -70 0 -26 8 -66 18 -90 10 -24 17 -43 15 -43 -5 0 8 -54 32
-127 11 -35 16 -60 11 -57 -5 3 -7 -1 -4 -8 2 -7 6 -30 9 -50 3 -20 17 -70 30
-110 14 -40 27 -99 30 -131 3 -31 13 -69 22 -83 13 -19 17 -46 16 -104 0 -73
14 -149 31 -166 4 -4 7 -22 7 -39 0 -17 3 -35 7 -39 4 -4 9 -19 10 -34 3 -55
17 -169 29 -242 7 -41 11 -68 19 -135 3 -27 9 -69 14 -93 5 -23 6 -42 3 -42
-2 0 1 -7 8 -15 7 -8 10 -15 6 -15 -3 0 -1 -12 5 -27 6 -16 14 -76 19 -136 5
-59 12 -113 17 -120 4 -6 8 -23 9 -37 2 -50 3 -52 27 -45 33 11 40 20 44 67 2
24 6 50 9 58 3 8 7 42 10 75 3 33 8 74 10 90 3 17 6 36 6 43 1 6 5 12 9 12 4
0 5 9 2 20 -3 11 0 27 7 35 7 8 10 15 8 15 -3 0 -1 19 4 43 15 76 18 91 22
142 3 28 7 61 10 75 11 52 18 96 22 130 5 34 5 45 3 73 -2 25 4 73 11 97 8 25
33 139 66 295 18 86 23 123 25 170 0 17 5 44 9 60 5 17 14 50 21 75 6 25 14
52 17 60 3 8 6 22 8 30 16 89 26 139 32 160 3 14 7 36 8 50 3 31 23 99 35 122
5 10 9 27 9 37 0 11 4 23 10 26 6 3 10 21 10 39 0 17 4 36 10 42 5 5 10 27 11
49 2 22 6 47 10 55 22 46 51 171 45 193 -3 15 -1 31 6 39 31 32 96 213 92 253
-2 16 9 46 26 73 16 26 32 61 36 77 4 17 13 40 21 52 8 12 15 39 16 60 1 21
10 47 19 57 20 22 53 89 74 154 9 26 29 66 45 89 15 24 33 60 39 82 6 22 14
41 19 43 5 2 29 46 54 99 44 93 190 324 242 384 72 83 366 382 410 417 28 22
78 66 113 99 34 32 65 59 70 59 4 0 18 15 32 32 14 18 43 53 65 79 22 26 57
67 77 90 20 24 55 64 78 88 22 24 40 47 40 52 0 4 6 14 13 21 6 7 23 35 37 61
13 26 27 47 30 47 3 0 11 15 19 33 13 29 67 115 80 127 3 3 13 19 21 35 8 17
27 48 41 70 32 50 93 201 85 213 -3 5 6 24 19 42 14 19 25 42 25 51 0 10 5 21
10 24 6 3 10 13 10 22 0 8 7 29 15 46 24 54 45 121 45 148 0 15 9 55 20 90 10
35 20 82 21 104 1 22 6 45 10 50 4 6 6 44 5 85 -2 41 2 86 7 100 13 30 17 714
6 750 -5 14 -11 41 -13 60 -10 73 -18 108 -48 194 -16 49 -31 100 -34 115 -9
64 -35 148 -58 184 -8 12 -19 38 -25 59 -23 71 -159 326 -186 348 -8 7 -15 18
-15 24 0 20 -83 149 -175 271 -104 140 -379 421 -500 510 -110 83 -158 115
-171 115 -6 0 -28 14 -49 30 -21 17 -42 30 -47 30 -6 0 -47 23 -93 50 -46 28
-89 50 -96 50 -8 0 -27 7 -44 16 -16 8 -66 28 -110 43 -44 16 -100 37 -125 48
-104 46 -144 57 -255 69 -27 3 -52 9 -55 14 -5 7 -33 15 -95 26 -16 3 -41 8
-55 11 -29 7 -706 13 -713 6z m406 -697 c11 11 219 10 231 -1 10 -10 70 -30
116 -39 8 -2 22 -6 30 -9 41 -17 108 -39 135 -43 27 -6 167 -67 260 -115 108
-56 136 -72 140 -79 3 -5 18 -11 33 -15 15 -3 41 -18 57 -33 16 -15 45 -37 65
-50 39 -27 36 -23 215 -199 134 -131 148 -148 211 -243 20 -30 49 -74 65 -98
16 -23 29 -45 29 -48 0 -3 9 -18 19 -32 21 -29 111 -204 111 -215 0 -4 15 -40
34 -81 19 -40 42 -99 52 -130 10 -31 25 -64 34 -74 11 -12 16 -36 16 -82 0
-62 5 -96 23 -165 4 -16 7 -78 7 -137 -1 -60 2 -108 6 -108 4 0 5 -7 1 -15 -3
-9 -7 -77 -9 -153 -7 -228 -10 -260 -27 -286 -9 -13 -19 -39 -22 -58 -3 -18
-14 -58 -24 -88 -10 -30 -28 -86 -41 -125 -12 -38 -32 -92 -45 -120 -13 -27
-31 -68 -41 -90 -10 -22 -23 -43 -28 -47 -6 -4 -8 -8 -3 -8 14 0 -186 -303
-235 -354 -21 -23 -55 -61 -76 -85 -59 -70 -96 -107 -114 -117 -9 -5 -45 -36
-80 -69 -35 -33 -80 -71 -101 -85 -20 -14 -37 -28 -37 -32 0 -5 -6 -8 -13 -8
-7 0 -28 -11 -48 -24 -20 -14 -51 -33 -70 -44 -19 -11 -62 -36 -96 -56 -34
-20 -68 -36 -75 -36 -8 0 -19 -5 -24 -10 -6 -6 -19 -12 -30 -14 -10 -3 -44
-15 -74 -29 -71 -32 -91 -39 -115 -44 -10 -2 -22 -8 -26 -14 -4 -6 -31 -11
-60 -11 -30 -1 -58 -4 -64 -8 -5 -3 -26 -7 -45 -8 -36 -2 -115 -17 -161 -31
-14 -5 -41 -7 -60 -5 -116 9 -195 14 -274 18 -49 3 -108 9 -130 15 -22 6 -56
13 -75 16 -19 2 -57 7 -85 11 -27 3 -62 7 -77 7 -15 1 -25 4 -23 8 5 8 -29 24
-80 39 -22 6 -49 15 -60 20 -11 4 -38 15 -60 24 -54 22 -136 66 -156 82 -8 8
-22 14 -31 14 -8 0 -26 8 -39 19 -13 10 -34 21 -46 25 -13 4 -23 12 -23 17 0
5 -10 14 -22 19 -32 14 -57 31 -87 58 -15 13 -51 43 -81 67 -94 76 -297 291
-355 379 -11 16 -27 40 -35 52 -39 58 -110 182 -110 192 0 7 -3 12 -8 12 -4 0
-13 15 -21 33 -8 17 -27 59 -42 92 -57 126 -67 151 -73 185 -4 19 -16 62 -26
95 -10 33 -20 74 -21 90 -2 17 -7 36 -12 43 -5 6 -7 12 -4 12 3 0 1 15 -4 33
-5 17 -12 52 -14 77 -3 25 -9 63 -12 85 -9 53 -9 324 1 397 4 31 9 74 11 95 2
21 9 56 14 78 19 78 28 125 23 125 -2 0 2 7 9 17 8 9 12 17 10 17 -5 1 38 145
50 168 5 10 9 22 9 27 0 5 13 38 29 73 16 35 34 80 41 101 6 20 15 37 18 37 4
0 23 31 42 68 19 37 38 69 41 72 3 3 19 28 35 55 55 95 119 177 224 287 92 96
221 212 270 243 58 36 111 72 164 111 22 17 56 36 74 42 18 6 45 20 60 30 15
11 38 23 51 27 13 4 39 14 58 21 18 8 36 15 40 15 13 2 86 30 106 40 10 5 21
7 26 5 4 -3 17 1 27 9 10 8 28 15 40 15 11 0 24 4 30 9 8 9 42 16 124 26 19 3
46 8 60 12 14 3 83 7 153 9 71 1 131 5 134 7 2 3 17 1 33 -3 16 -4 31 -6 33
-4z"/>
<path d="M4345 8203 c-86 -26 -172 -91 -226 -172 -44 -63 -79 -162 -79 -219 0
-101 5 -173 14 -194 4 -9 9 -22 10 -30 12 -56 99 -183 154 -223 71 -53 116
-62 287 -61 128 2 157 5 195 22 61 28 173 137 198 194 37 82 41 108 38 252 -2
132 -4 147 -29 198 -63 132 -140 197 -267 228 -91 23 -226 25 -295 5z"/>
<path d="M5465 8203 c-71 -24 -99 -41 -156 -95 -119 -113 -148 -180 -144 -337
1 -57 7 -107 13 -113 6 -6 9 -23 6 -38 -6 -28 12 -110 24 -110 4 0 16 -15 26
-32 40 -69 137 -147 208 -166 47 -13 291 -12 343 1 22 6 46 17 53 24 7 7 18
13 23 13 5 0 39 31 76 68 59 59 72 79 95 146 24 68 27 93 26 193 0 64 -6 135
-14 159 -7 24 -10 44 -6 44 4 0 2 4 -3 8 -6 4 -30 37 -54 75 -24 37 -46 67
-50 67 -4 0 -16 9 -28 19 -24 23 -123 74 -130 68 -2 -3 -23 1 -46 8 -55 16
-211 15 -262 -2z"/>
<path d="M4390 7269 c-13 -6 -33 -9 -45 -7 -19 2 -108 -27 -165 -54 -14 -7
-68 -40 -120 -75 -136 -89 -269 -231 -325 -348 -11 -22 -27 -49 -36 -60 -13
-16 -51 -130 -63 -188 -2 -7 -6 -19 -9 -27 -24 -56 -67 -207 -67 -233 0 -18
-4 -48 -10 -67 -5 -19 -11 -60 -12 -90 -1 -30 -5 -59 -9 -65 -3 -5 -6 -36 -5
-68 0 -31 -3 -57 -7 -57 -4 0 -3 -8 2 -17 9 -18 11 -25 11 -40 0 -5 167 -9
370 -10 204 -1 375 -5 380 -8 6 -4 10 -3 10 2 0 4 26 7 57 6 86 -2 126 -3 148
-3 11 1 52 1 90 1 398 -2 833 7 851 17 21 11 22 16 19 194 -2 101 -6 192 -8
203 -10 49 -20 82 -33 112 -8 17 -14 35 -12 40 3 15 -34 128 -48 144 -8 8 -14
23 -14 32 0 10 -5 25 -10 35 -6 9 -19 37 -30 62 -71 161 -225 351 -357 441
-32 21 -63 39 -69 39 -6 0 -17 6 -23 14 -10 12 -145 60 -153 55 -2 -1 -19 5
-38 13 -41 17 -231 22 -270 7z"/>
<path d="M5475 7262 c-27 -7 -66 -18 -86 -22 -55 -14 -192 -81 -212 -103 -14
-16 -17 -34 -14 -84 3 -54 8 -68 33 -96 34 -37 64 -79 96 -134 31 -54 141
-272 155 -308 26 -69 71 -223 76 -262 3 -23 15 -56 28 -74 19 -27 23 -47 27
-153 2 -66 8 -125 14 -131 11 -12 970 -15 979 -3 9 13 1 238 -9 251 -5 7 -7
32 -5 57 4 51 -10 128 -38 211 -10 31 -19 63 -19 71 0 14 -11 41 -60 153 -10
22 -25 56 -33 76 -13 32 -123 207 -137 219 -3 3 -19 23 -36 45 -62 85 -100
118 -219 190 -62 38 -168 82 -220 91 -16 3 -47 10 -68 15 -51 13 -190 8 -252
-9z"/>
</g>
</svg>
